<?xml version="1.0" encoding="utf-8"?>
<!-- Generator: Adobe Illustrator 17.1.0, SVG Export Plug-In . SVG Version: 6.00 Build 0)  -->
<svg version="1.2" baseProfile="tiny" id="Layer_2" xmlns="http://www.w3.org/2000/svg" xmlns:xlink="http://www.w3.org/1999/xlink"
	 x="0px" y="0px" width="72px" height="72px" viewBox="0 0 72 72" xml:space="preserve">
<path d="M46.3,10.5c-17.9,0-25.5,9.1-27.4,13.2c-1.8,3.9-4.7,7.6-8,10C7.7,35.9,2,37,2,44c0,16.1,17.3,18.1,27.1,18.1
	S70.4,58,70.4,35S52.9,10.5,46.3,10.5z M5.7,43.4c0-1.6,1-2.9,2.3-4l8.5,10.5C10.6,49.2,5.7,47.5,5.7,43.4z M29.3,50.4
	c-2.5,0-5.6,0-8.7-0.2L10.5,37.7c0.5-0.3,1-0.5,1.5-0.7c3-1.4,5.5-4.5,6.9-6.4c0.2-0.3,0.5-0.7,0.8-1.3l16.7,20.5
	C33.8,50.2,31.4,50.4,29.3,50.4z M39.6,49L21.3,26.5c1.9-2.8,4.8-6.5,9.2-9.2l7.1,8.7c-0.1,0-0.1,0.1-0.2,0.1c-4,2.1-6,6.1-4.5,9
	c1.5,2.9,6,3.5,9.9,1.4c0.8-0.4,1.5-0.9,2.1-1.4l7.2,8.9C48.2,46.3,43.8,48,39.6,49z M38.7,28.7c2-1,4.2-0.7,4.9,0.7
	c0.7,1.4-0.2,3.4-2.2,4.4s-4.2,0.7-4.9-0.7C35.8,31.8,36.8,29.8,38.7,28.7z M54.7,42.4l-7.8-9.6c1-1.8,1.3-3.7,0.4-5.2
	c-1.1-2.1-3.8-3-6.7-2.5l-7.4-9.1c3.1-1.4,6.7-2.3,11.1-2.3c0.7,0,1.5,0,2.4,0.1l0,0l16,19.7C61,37,58.1,39.9,54.7,42.4z M63.8,30.1
	L51,14.4c6.2,1.4,13.2,4.9,13.2,12C64.2,27.7,64,28.9,63.8,30.1z"/>
</svg>
