<?xml version="1.0" encoding="utf-8"?>
<svg version="1.2" baseProfile="tiny" id="Layer_1" xmlns="http://www.w3.org/2000/svg" xmlns:xlink="http://www.w3.org/1999/xlink"
	 x="0px" y="0px" width="10px" height="10px" viewBox="0 0 10 10" xml:space="preserve">
<path fill="#B18D4A" d="M1.667,8.889C1.667,9.502,2.164,10,2.778,10c0.614,0,1.111-0.498,1.111-1.111S3.392,7.777,2.778,7.777
	C2.164,7.777,1.667,8.275,1.667,8.889z M7.223,8.889C7.223,9.502,7.721,10,8.334,10s1.109-0.498,1.109-1.111
	S8.947,7.777,8.334,7.777S7.223,8.275,7.223,8.889z M3.637,6.264l6.15-1.758C9.904,4.472,10,4.344,10,4.222V1.167H2.167V0.222
	C2.167,0.1,2.067,0,1.944,0H0.222C0.1,0,0,0.1,0,0.222v0.889h1.08l1.093,5.032l0.105,0.523V7.5c0,0.122,0.1,0.223,0.222,0.223h0.278
	h5.556h1.443C9.9,7.723,10,7.622,10,7.5V6.667H3.751C3.112,6.667,3.1,6.416,3.637,6.264z"/>
</svg>
