<?xml version="1.0" encoding="UTF-8" standalone="no"?>
<!DOCTYPE svg PUBLIC "-//W3C//DTD SVG 1.1//EN" "http://www.w3.org/Graphics/SVG/1.1/DTD/svg11.dtd">
<svg width="100%" height="100%" viewBox="0 0 100 100" version="1.1" xmlns="http://www.w3.org/2000/svg" xmlns:xlink="http://www.w3.org/1999/xlink" xml:space="preserve" xmlns:serif="http://www.serif.com/" style="fill-rule:evenodd;clip-rule:evenodd;stroke-linejoin:round;stroke-miterlimit:2;">
    <g transform="matrix(1.08437,0,0,1.07768,-5.64516,-5.05549)">
        <rect x="5.206" y="4.691" width="92.22" height="92.792" style="fill:rgb(233,221,208);"/>
    </g>
    <g transform="matrix(1,0,0,1,13.8,13.7)">
        <path d="M46.3,10.5C28.4,10.5 20.8,19.6 18.9,23.7C17.1,27.6 14.2,31.3 10.9,33.7C7.7,35.9 2,37 2,44C2,60.1 19.3,62.1 29.1,62.1C38.9,62.1 70.4,58 70.4,35C70.4,12 52.9,10.5 46.3,10.5ZM5.7,43.4C5.7,41.8 6.7,40.5 8,39.4L16.5,49.9C10.6,49.2 5.7,47.5 5.7,43.4ZM29.3,50.4C26.8,50.4 23.7,50.4 20.6,50.2L10.5,37.7C11,37.4 11.5,37.2 12,37C15,35.6 17.5,32.5 18.9,30.6C19.1,30.3 19.4,29.9 19.7,29.3L36.4,49.8C33.8,50.2 31.4,50.4 29.3,50.4ZM39.6,49L21.3,26.5C23.2,23.7 26.1,20 30.5,17.3L37.6,26C37.5,26 37.5,26.1 37.4,26.1C33.4,28.2 31.4,32.2 32.9,35.1C34.4,38 38.9,38.6 42.8,36.5C43.6,36.1 44.3,35.6 44.9,35.1L52.1,44C48.2,46.3 43.8,48 39.6,49ZM38.7,28.7C40.7,27.7 42.9,28 43.6,29.4C44.3,30.8 43.4,32.8 41.4,33.8C39.4,34.8 37.2,34.5 36.5,33.1C35.8,31.8 36.8,29.8 38.7,28.7ZM54.7,42.4L46.9,32.8C47.9,31 48.2,29.1 47.3,27.6C46.2,25.5 43.5,24.6 40.6,25.1L33.2,16C36.3,14.6 39.9,13.7 44.3,13.7C45,13.7 45.8,13.7 46.7,13.8L62.7,33.5C61,37 58.1,39.9 54.7,42.4ZM63.8,30.1L51,14.4C57.2,15.8 64.2,19.3 64.2,26.4C64.2,27.7 64,28.9 63.8,30.1Z" style="fill:rgb(87,63,50);fill-rule:nonzero;"/>
    </g>
</svg>
