<?xml version="1.0" encoding="utf-8"?>
<!DOCTYPE svg PUBLIC "-//W3C//DTD SVG 1.1//EN" "http://www.w3.org/Graphics/SVG/1.1/DTD/svg11.dtd">
<svg version="1.1" id="Layer_1" xmlns="http://www.w3.org/2000/svg" xmlns:xlink="http://www.w3.org/1999/xlink" x="0px" y="0px"
	 width="50px" height="50px" viewBox="0 0 50 50" enable-background="new 0 0 50 50" xml:space="preserve">
<g>
	<path fill="#573F32" d="M42.303,37.121l-10.606-12.12l10.606-12.122c1.803-1.803,1.803-4.725,0-6.528
		c-1.804-1.802-4.726-1.801-6.527,0L25.577,18.007L15.38,6.352c-1.802-1.802-4.724-1.803-6.528,0c-1.803,1.803-1.803,4.725,0,6.528
		l10.606,12.122L8.852,37.121c-1.803,1.801-1.803,4.724,0,6.526c1.803,1.805,4.725,1.805,6.528,0l10.197-11.654l10.198,11.654
		c1.803,1.805,4.725,1.805,6.528,0C44.105,41.845,44.105,38.922,42.303,37.121z"/>
</g>
</svg>
