<?xml version="1.0" encoding="utf-8"?>
<svg version="1.2" baseProfile="tiny" id="Layer_1" xmlns="http://www.w3.org/2000/svg" xmlns:xlink="http://www.w3.org/1999/xlink"
	 x="0px" y="0px" width="50px" height="50px" viewBox="0 0 50 50" xml:space="preserve">
<g>
	<path fill="#E9DDD0" d="M24.702,2.71C12.392,2.875,2.546,12.99,2.71,25.3c0.165,12.306,10.278,22.153,22.588,21.989
		C37.605,47.123,47.454,37.01,47.29,24.701C47.124,12.394,37.011,2.546,24.702,2.71z M27.174,10.14c2.266,0,2.936,1.315,2.936,2.818
		c0,1.878-1.506,3.615-4.07,3.615c-2.146,0-3.168-1.08-3.108-2.864C22.931,12.206,24.191,10.14,27.174,10.14z M21.364,38.932
		c-1.548,0-2.684-0.939-1.6-5.072l1.776-7.328c0.309-1.175,0.361-1.644,0-1.644c-0.464,0-2.475,0.81-3.662,1.608l-0.774-1.268
		c3.767-3.145,8.099-4.99,9.957-4.99c1.548,0,1.806,1.831,1.032,4.649l-2.037,7.704c-0.359,1.361-0.205,1.832,0.156,1.832
		c0.465,0,1.986-0.566,3.483-1.74l0.877,1.174C26.91,37.52,22.911,38.932,21.364,38.932z"/>
</g>
</svg>
