<?xml version="1.0" encoding="utf-8"?>
<svg version="1.2" baseProfile="tiny" id="Layer_1" xmlns="http://www.w3.org/2000/svg" xmlns:xlink="http://www.w3.org/1999/xlink"
	 x="0px" y="0px" width="50px" height="50px" viewBox="0 0 50 50" xml:space="preserve">
<path fill="#E9DDD0" d="M7.143,35.316H3.572C1.599,35.316,0,36.915,0,38.888s1.599,3.571,3.572,3.571h3.571
	c1.973,0,3.572-1.599,3.572-3.571S9.115,35.316,7.143,35.316z M7.143,21.031H3.572C1.599,21.031,0,22.629,0,24.602
	c0,1.972,1.599,3.572,3.572,3.572h3.571c1.973,0,3.572-1.6,3.572-3.572C10.714,22.629,9.115,21.031,7.143,21.031z M7.143,6.745
	H3.572C1.599,6.745,0,8.344,0,10.317s1.599,3.571,3.572,3.571h3.571c1.973,0,3.572-1.598,3.572-3.571S9.115,6.745,7.143,6.745z
	 M21.428,13.888h25C48.4,13.888,50,12.29,50,10.317s-1.6-3.572-3.572-3.572h-25c-1.972,0-3.571,1.599-3.571,3.572
	S19.456,13.888,21.428,13.888z M46.428,21.031h-25c-1.972,0-3.571,1.599-3.571,3.571c0,1.972,1.599,3.572,3.571,3.572h25
	c1.973,0,3.572-1.6,3.572-3.572C50,22.629,48.4,21.031,46.428,21.031z M46.428,35.316h-25c-1.972,0-3.571,1.599-3.571,3.571
	s1.599,3.571,3.571,3.571h25C48.4,42.459,50,40.86,50,38.888S48.4,35.316,46.428,35.316z"/>
</svg>
